[h264 @ 0x55a813807180] Reinit context to 640x352, pix_fmt: yuv420p
Input #0, mov,mp4,m4a,3gp,3g2,mj2, from '/var/www/html/project/media/video/original/VID-20220807-WA0002.mp4':
  Metadata:
    major_brand     : mp42
    minor_version   : 0
    compatible_brands: mp42isom
  Duration: 00:00:34.79, start: 0.000000, bitrate: 2041 kb/s
    Stream #0:0(und): Video: h264 (High), 1 reference frame (avc1 / 0x31637661), yuv420p(tv, unknown/bt470bg/unknown, left), 640x352, 1942 kb/s, 58.90 fps, 59.94 tbr, 90k tbn, 180k tbc (default)
    Stream #0:1(und): Audio: aac (LC) (mp4a / 0x6134706D), 48000 Hz, stereo, fltp, 96 kb/s (default)
Input #1, png_pipe, from '/var/www/html/project/static/images/templates/logo.png':
  Duration: N/A, bitrate: N/A
    Stream #1:0: Video: png, 1 reference frame, rgba(pc), 1920x1080 [SAR 2835:2835 DAR 16:9], 25 tbr, 25 tbn, 25 tbc
[h264 @ 0x55a813914ec0] Reinit context to 1280x720, pix_fmt: yuv420p
Input #2, mov,mp4,m4a,3gp,3g2,mj2, from '/var/www/html/project/static/images/templates/Codino.mp4':
  Metadata:
    major_brand     : mp42
    minor_version   : 1
    compatible_brands: isommp41mp42
    creation_time   : 2021-07-11T07:02:58.000000Z
  Duration: 00:00:02.00, start: 0.000000, bitrate: 1007 kb/s
    Stream #2:0(ita): Audio: aac (LC) (mp4a / 0x6134706D), 44100 Hz, stereo, fltp, 102 kb/s (default)
    Metadata:
      creation_time   : 2021-07-11T07:02:58.000000Z
      handler_name    : Core Media Audio
    Stream #2:1(und): Video: h264 (High), 1 reference frame (avc1 / 0x31637661), yuv420p(tv, bt709, progressive, left), 1280x720 [SAR 1:1 DAR 16:9], 813 kb/s, 25 fps, 25 tbr, 25k tbn, 50k tbc (default)
    Metadata:
      creation_time   : 2021-07-11T07:02:58.000000Z
      handler_name    : Core Media Video
[Parsed_scale_0 @ 0x55a8138f2ac0] w:1280 h:720 flags:'bilinear' interl:0
[Parsed_scale_2 @ 0x55a81384d480] w:1280 h:720 flags:'bilinear' interl:0
[Parsed_scale_4 @ 0x55a813913780] w:1280 h:720 flags:'bilinear' interl:0
Stream mapping:
  Stream #0:0 (h264) -> scale
  Stream #0:1 (aac) -> concat:in0:a0
  Stream #1:0 (png) -> scale
  Stream #2:0 (aac) -> concat:in1:a0
  Stream #2:1 (h264) -> scale
  concat:out:v0 -> Stream #0:0 (libx264)
  concat:out:a0 -> Stream #0:1 (aac)
Press [q] to stop, [?] for help
[h264 @ 0x55a8138d8a80] Reinit context to 640x352, pix_fmt: yuv420p
[h264 @ 0x55a813cc8580] Reinit context to 1280x720, pix_fmt: yuv420p
[Parsed_scale_0 @ 0x55a81391b480] w:1280 h:720 flags:'bilinear' interl:0
[Parsed_scale_2 @ 0x55a813919380] w:1280 h:720 flags:'bilinear' interl:0
[Parsed_scale_4 @ 0x55a81391d180] w:1280 h:720 flags:'bilinear' interl:0
[graph 0 input from stream 0:0 @ 0x55a81387d4c0] w:640 h:352 pixfmt:yuv420p tb:1/90000 fr:60000/1001 sar:0/1 sws_param:flags=2
[graph 0 input from stream 1:0 @ 0x55a81391e4c0] w:1920 h:1080 pixfmt:rgba tb:1/25 fr:25/1 sar:2835/2835 sws_param:flags=2
[graph 0 input from stream 2:1 @ 0x55a81391c500] w:1280 h:720 pixfmt:yuv420p tb:1/25000 fr:25/1 sar:1/1 sws_param:flags=2
[graph_0_in_0_1 @ 0x55a813864640] tb:1/48000 samplefmt:fltp samplerate:48000 chlayout:0x3
[graph_0_in_2_0 @ 0x55a8146af0c0] tb:1/44100 samplefmt:fltp samplerate:44100 chlayout:0x3
[Parsed_concat_7 @ 0x55a813930900] auto-inserting filter 'auto_resampler_0' between the filter 'graph_0_in_2_0' and the filter 'Parsed_concat_7'
[Parsed_scale_0 @ 0x55a81391b480] w:640 h:352 fmt:yuv420p sar:0/1 -> w:1280 h:720 fmt:yuv420p sar:0/1 flags:0x2
[Parsed_setsar_1 @ 0x55a813866c80] w:1280 h:720 sar:0/1 dar:16/9 -> sar:1/1 dar:16/9
[Parsed_scale_2 @ 0x55a813919380] w:1920 h:1080 fmt:rgba sar:2835/2835 -> w:1280 h:720 fmt:yuva420p sar:1/1 flags:0x2
[Parsed_setsar_3 @ 0x55a813916240] w:1280 h:720 sar:1/1 dar:16/9 -> sar:1/1 dar:16/9
[Parsed_overlay_6 @ 0x55a8139163c0] main w:1280 h:720 fmt:yuv420p overlay w:1280 h:720 fmt:yuva420p
[Parsed_overlay_6 @ 0x55a8139163c0] [framesync @ 0x55a813862fe8] Selected 1/90000 time base
[Parsed_overlay_6 @ 0x55a8139163c0] [framesync @ 0x55a813862fe8] Sync level 2
[Parsed_scale_4 @ 0x55a81391d180] w:1280 h:720 fmt:yuv420p sar:1/1 -> w:1280 h:720 fmt:yuv420p sar:1/1 flags:0x2
[Parsed_setsar_5 @ 0x55a813919500] w:1280 h:720 sar:1/1 dar:16/9 -> sar:1/1 dar:16/9
[auto_resampler_0 @ 0x55a8146af3c0] ch:2 chl:stereo fmt:fltp r:44100Hz -> ch:2 chl:stereo fmt:fltp r:48000Hz
[libx264 @ 0x55a81384c640] using SAR=1/1
[libx264 @ 0x55a81384c640] using cpu capabilities: MMX2 SSE2Fast SSSE3 SSE4.2 AVX FMA3 BMI2 AVX2
[libx264 @ 0x55a81384c640] profile High, level 3.2
[libx264 @ 0x55a81384c640] 264 - core 155 r2917 0a84d98 - H.264/MPEG-4 AVC codec - Copyleft 2003-2018 - http://www.videolan.org/x264.html - options: cabac=1 ref=1 deblock=1:0:0 analyse=0x3:0x113 me=hex subme=2 psy=1 psy_rd=1.00:0.00 mixed_ref=0 me_range=16 chroma_me=1 trellis=0 8x8dct=1 cqm=0 deadzone=21,11 fast_pskip=1 chroma_qp_offset=0 threads=22 lookahead_threads=5 sliced_threads=0 nr=0 decimate=1 interlaced=0 bluray_compat=0 constrained_intra=0 bframes=3 b_pyramid=2 b_adapt=1 b_bias=0 direct=1 weightb=1 open_gop=0 weightp=1 keyint=250 keyint_min=25 scenecut=40 intra_refresh=0 rc_lookahead=10 rc=crf mbtree=1 crf=18.0 qcomp=0.60 qpmin=0 qpmax=69 qpstep=4 ip_ratio=1.40 aq=1:1.00
Output #0, mp4, to '/var/www/html/project/media/video/watermarks/VID-20220807-WA0002.mp4':
  Metadata:
    major_brand     : mp42
    minor_version   : 0
    compatible_brands: mp42isom
    encoder         : Lavf58.29.100
    Stream #0:0: Video: h264 (libx264), 1 reference frame (avc1 / 0x31637661), yuv420p(progressive), 1280x720 [SAR 1:1 DAR 16:9], q=-1--1, 59.94 fps, 60k tbn, 59.94 tbc (default)
    Metadata:
      encoder         : Lavc58.54.100 libx264
    Side data:
      cpb: bitrate max/min/avg: 0/0/0 buffer size: 0 vbv_delay: -1
    Stream #0:1: Audio: aac (LC) (mp4a / 0x6134706D), 48000 Hz, stereo, fltp, delay 1024, 128 kb/s (default)
    Metadata:
      encoder         : Lavc58.54.100 aac
[Parsed_overlay_6 @ 0x55a8139163c0] [framesync @ 0x55a813862fe8] Sync level 0
[Parsed_concat_7 @ 0x55a813930900] EOF on in0:v0, 1 streams left in segment.
[Parsed_concat_7 @ 0x55a813930900] EOF on in0:a0, 0 streams left in segment.
[Parsed_concat_7 @ 0x55a813930900] Segment finished at pts=34794666
[Parsed_concat_7 @ 0x55a813930900] EOF on in1:v0, 1 streams left in segment.
[Parsed_concat_7 @ 0x55a813930900] EOF on in1:a0, 0 streams left in segment.
[Parsed_concat_7 @ 0x55a813930900] Segment finished at pts=36813353
No more output streams to write to, finishing.
frame= 2098 fps=268 q=-1.0 Lsize=   12350kB time=00:00:36.82 bitrate=2747.6kbits/s speed=4.71x    
[AVIOContext @ 0x55a813805440] Statistics: 0 seeks, 16 writeouts
video:11723kB audio:570kB subtitle:0kB other streams:0kB global headers:0kB muxing overhead: 0.465008%
Input file #0 (/var/www/html/project/media/video/original/VID-20220807-WA0002.mp4):
  Input stream #0:0 (video): 2048 packets read (8443680 bytes); 2048 frames decoded; 
  Input stream #0:1 (audio): 1631 packets read (417541 bytes); 1631 frames decoded (1670144 samples); 
  Total: 3679 packets (8861221 bytes) demuxed
Input file #1 (/var/www/html/project/static/images/templates/logo.png):
  Input stream #1:0 (video): 1 packets read (111578 bytes); 1 frames decoded; 
  Total: 1 packets (111578 bytes) demuxed
Input file #2 (/var/www/html/project/static/images/templates/Codino.mp4):
  Input stream #2:0 (audio): 89 packets read (26579 bytes); 87 frames decoded (89024 samples); 
  Input stream #2:1 (video): 50 packets read (203365 bytes); 50 frames decoded; 
  Total: 139 packets (229944 bytes) demuxed
Output file #0 (/var/www/html/project/media/video/watermarks/VID-20220807-WA0002.mp4):
  Output stream #0:0 (video): 2098 frames encoded; 2098 packets muxed (12004028 bytes); 
  Output stream #0:1 (audio): 1726 frames encoded (1767041 samples); 1727 packets muxed (583918 bytes); 
  Total: 3825 packets (12587946 bytes) muxed
[AVIOContext @ 0x55a813872880] Statistics: 2 seeks, 52 writeouts
[libx264 @ 0x55a81384c640] frame I:9     Avg QP:14.03  size: 33040
[libx264 @ 0x55a81384c640] frame P:594   Avg QP:16.62  size: 11176
[libx264 @ 0x55a81384c640] frame B:1495  Avg QP:18.88  size:  3390
[libx264 @ 0x55a81384c640] consecutive B-frames:  4.2%  1.1%  3.7% 90.9%
[libx264 @ 0x55a81384c640] mb I  I16..4: 48.2% 38.6% 13.2%
[libx264 @ 0x55a81384c640] mb P  I16..4: 25.5% 17.8%  0.3%  P16..4: 18.5%  6.6%  2.1%  0.0%  0.0%    skip:29.2%
[libx264 @ 0x55a81384c640] mb B  I16..4:  1.9%  1.6%  0.0%  B16..8: 16.5%  3.2%  0.1%  direct:12.7%  skip:63.9%  L0:44.9% L1:50.1% BI: 5.1%
[libx264 @ 0x55a81384c640] 8x8 transform intra:41.6% inter:37.1%
[libx264 @ 0x55a81384c640] coded y,uvDC,uvAC intra: 28.3% 49.7% 10.0% inter: 3.4% 19.0% 0.2%
[libx264 @ 0x55a81384c640] i16 v,h,dc,p: 63% 19% 11%  7%
[libx264 @ 0x55a81384c640] i8 v,h,dc,ddl,ddr,vr,hd,vl,hu: 16% 24% 31%  3%  7%  6%  7%  3%  4%
[libx264 @ 0x55a81384c640] i4 v,h,dc,ddl,ddr,vr,hd,vl,hu: 20% 29% 16%  5%  8%  6%  8%  4%  5%
[libx264 @ 0x55a81384c640] i8c dc,h,v,p: 54% 19% 18%  8%
[libx264 @ 0x55a81384c640] Weighted P-Frames: Y:1.2% UV:0.2%
[libx264 @ 0x55a81384c640] kb/s:2610.36
[aac @ 0x55a813870c00] Qavg: 1445.428
[AVIOContext @ 0x55a81380e3c0] Statistics: 8879159 bytes read, 0 seeks
[AVIOContext @ 0x55a8138bb740] Statistics: 111578 bytes read, 0 seeks
[AVIOContext @ 0x55a81380b600] Statistics: 1530915 bytes read, 42 seeks
